<svg xmlns="http://www.w3.org/2000/svg" viewBox="0 0 512 512">
  <defs>
    <linearGradient id="specFill" x1="0" y1="0" x2="0" y2="1">
      <stop offset="0%" stop-color="#6C5CE7" stop-opacity="0.3"/>
      <stop offset="100%" stop-color="#6C5CE7" stop-opacity="0.02"/>
    </linearGradient>
    <radialGradient id="dot">
      <stop offset="0%" stop-color="#ffffff" stop-opacity="0.6"/>
      <stop offset="100%" stop-color="#ffffff" stop-opacity="0"/>
    </radialGradient>
    <clipPath id="circleClip">
      <circle cx="256" cy="256" r="240"/>
    </clipPath>
  </defs>

  <!-- Background circle -->
  <circle cx="256" cy="256" r="240" fill="#0F0E17" stroke="#2D2B55" stroke-width="4"/>

  <!-- Diffuse glowing dots -->
  <circle cx="120" cy="120" r="6" fill="url(#dot)"/>
  <circle cx="400" cy="100" r="5" fill="url(#dot)"/>
  <circle cx="160" cy="85" r="4" fill="url(#dot)"/>
  <circle cx="380" cy="150" r="4.5" fill="url(#dot)"/>
  <circle cx="280" cy="78" r="3.5" fill="url(#dot)"/>
  <circle cx="440" cy="200" r="4" fill="url(#dot)"/>
  <circle cx="100" cy="180" r="3" fill="url(#dot)"/>
  <circle cx="320" cy="95" r="4.5" fill="url(#dot)"/>
  <circle cx="200" cy="100" r="3" fill="url(#dot)"/>
  <circle cx="450" cy="280" r="3.5" fill="url(#dot)"/>
  <circle cx="90" cy="300" r="4" fill="url(#dot)"/>

  <!-- Subtle axis lines -->
  <line x1="80" y1="400" x2="432" y2="400"
        stroke="#2D2B55" stroke-width="1.5"/>
  <line x1="80" y1="400" x2="80" y2="80"
        stroke="#2D2B55" stroke-width="1.5"/>

  <!-- Water fill above threshold (clipped to circle) -->
  <g clip-path="url(#circleClip)">
    <rect x="0" y="80" width="512" height="185.6"
          fill="#4A90D9" opacity="0.08"/>
  </g>

  <!-- Water level line -->
  <line x1="80" y1="265.6" x2="432" y2="265.6"
        stroke="#4A90D9" stroke-width="1.2" stroke-dasharray="8,5" opacity="0.45"/>

  <!-- Spectrum fill -->
  <path d="M80.0,400.0 L80.0,395.6 L81.0,400.0 L82.0,389.2 L83.0,386.5 L84.0,400.0 L85.0,400.0 L86.1,398.2 L87.1,400.0 L88.1,400.0 L89.1,400.0 L90.1,387.3 L91.1,388.8 L92.1,399.0 L93.1,383.8 L94.1,393.3 L95.1,400.0 L96.1,394.7 L97.1,400.0 L98.2,387.4 L99.2,400.0 L100.2,400.0 L101.2,400.0 L102.2,382.4 L103.2,400.0 L104.2,400.0 L105.2,400.0 L106.2,392.3 L107.2,394.7 L108.2,394.1 L109.2,393.8 L110.3,369.2 L111.3,400.0 L112.3,400.0 L113.3,400.0 L114.3,391.1 L115.3,383.7 L116.3,400.0 L117.3,400.0 L118.3,400.0 L119.3,390.6 L120.3,389.3 L121.4,392.2 L122.4,400.0 L123.4,396.7 L124.4,398.3 L125.4,396.9 L126.4,387.5 L127.4,396.8 L128.4,390.2 L129.4,399.0 L130.4,395.8 L131.4,390.9 L132.4,400.0 L133.5,400.0 L134.5,400.0 L135.5,400.0 L136.5,400.0 L137.5,378.5 L138.5,400.0 L139.5,386.1 L140.5,400.0 L141.5,400.0 L142.5,397.7 L143.5,391.6 L144.6,389.8 L145.6,388.6 L146.6,400.0 L147.6,400.0 L148.6,387.6 L149.6,400.0 L150.6,400.0 L151.6,400.0 L152.6,400.0 L153.6,392.8 L154.6,397.9 L155.6,390.0 L156.7,400.0 L157.7,397.6 L158.7,390.8 L159.7,400.0 L160.7,393.0 L161.7,400.0 L162.7,400.0 L163.7,400.0 L164.7,400.0 L165.7,391.5 L166.7,400.0 L167.7,397.3 L168.8,389.8 L169.8,389.5 L170.8,385.2 L171.8,394.9 L172.8,398.1 L173.8,391.2 L174.8,400.0 L175.8,400.0 L176.8,400.0 L177.8,392.8 L178.8,368.5 L179.9,382.6 L180.9,369.6 L181.9,339.3 L182.9,356.3 L183.9,333.1 L184.9,348.9 L185.9,329.4 L186.9,330.5 L187.9,311.4 L188.9,283.6 L189.9,309.2 L190.9,266.4 L192.0,257.3 L193.0,257.2 L194.0,257.4 L195.0,223.8 L196.0,221.1 L197.0,199.3 L198.0,192.3 L199.0,160.5 L200.0,179.0 L201.0,183.6 L202.0,161.0 L203.0,156.5 L204.1,137.9 L205.1,144.8 L206.1,152.7 L207.1,139.3 L208.1,181.6 L209.1,179.4 L210.1,190.5 L211.1,191.0 L212.1,214.5 L213.1,195.7 L214.1,219.0 L215.2,248.5 L216.2,253.7 L217.2,246.6 L218.2,251.2 L219.2,246.4 L220.2,244.8 L221.2,292.1 L222.2,323.0 L223.2,349.6 L224.2,324.6 L225.2,348.9 L226.2,351.3 L227.3,361.5 L228.3,361.4 L229.3,349.9 L230.3,368.3 L231.3,377.5 L232.3,394.2 L233.3,400.0 L234.3,392.8 L235.3,389.1 L236.3,365.0 L237.3,390.4 L238.3,379.7 L239.4,400.0 L240.4,400.0 L241.4,400.0 L242.4,400.0 L243.4,367.5 L244.4,400.0 L245.4,386.8 L246.4,400.0 L247.4,385.9 L248.4,393.8 L249.4,400.0 L250.5,400.0 L251.5,400.0 L252.5,392.8 L253.5,400.0 L254.5,400.0 L255.5,400.0 L256.5,394.9 L257.5,373.7 L258.5,392.9 L259.5,395.4 L260.5,387.6 L261.5,370.5 L262.6,383.3 L263.6,388.9 L264.6,362.9 L265.6,367.9 L266.6,346.6 L267.6,360.0 L268.6,373.7 L269.6,368.6 L270.6,317.6 L271.6,308.8 L272.6,328.5 L273.7,323.8 L274.7,290.1 L275.7,320.5 L276.7,311.7 L277.7,284.9 L278.7,296.4 L279.7,288.7 L280.7,290.4 L281.7,284.0 L282.7,270.8 L283.7,293.4 L284.7,290.3 L285.8,334.9 L286.8,312.8 L287.8,331.5 L288.8,344.5 L289.8,347.4 L290.8,347.3 L291.8,336.7 L292.8,376.1 L293.8,363.1 L294.8,376.4 L295.8,379.5 L296.8,365.0 L297.9,375.7 L298.9,367.5 L299.9,391.8 L300.9,400.0 L301.9,396.9 L302.9,391.5 L303.9,393.5 L304.9,400.0 L305.9,395.8 L306.9,394.0 L307.9,360.9 L309.0,369.8 L310.0,400.0 L311.0,399.5 L312.0,400.0 L313.0,400.0 L314.0,386.2 L315.0,370.9 L316.0,395.9 L317.0,391.2 L318.0,400.0 L319.0,374.9 L320.0,381.9 L321.1,367.4 L322.1,364.6 L323.1,344.4 L324.1,358.3 L325.1,342.9 L326.1,278.8 L327.1,314.6 L328.1,297.4 L329.1,239.8 L330.1,208.2 L331.1,250.1 L332.1,221.3 L333.2,193.7 L334.2,156.5 L335.2,178.8 L336.2,152.0 L337.2,122.2 L338.2,113.5 L339.2,113.1 L340.2,99.5 L341.2,109.4 L342.2,87.3 L343.2,84.6 L344.3,76.7 L345.3,90.0 L346.3,79.6 L347.3,78.7 L348.3,100.1 L349.3,108.4 L350.3,125.6 L351.3,140.8 L352.3,166.8 L353.3,168.4 L354.3,191.4 L355.3,177.2 L356.4,202.0 L357.4,236.1 L358.4,269.2 L359.4,290.1 L360.4,271.8 L361.4,299.1 L362.4,308.9 L363.4,352.7 L364.4,324.8 L365.4,341.1 L366.4,372.0 L367.4,370.1 L368.5,365.9 L369.5,374.4 L370.5,384.0 L371.5,385.2 L372.5,390.6 L373.5,387.4 L374.5,370.6 L375.5,400.0 L376.5,398.5 L377.5,393.7 L378.5,392.8 L379.6,400.0 L380.6,400.0 L381.6,394.0 L382.6,374.2 L383.6,400.0 L384.6,387.1 L385.6,400.0 L386.6,400.0 L387.6,400.0 L388.6,400.0 L389.6,381.2 L390.6,391.5 L391.7,375.0 L392.7,383.0 L393.7,393.7 L394.7,374.9 L395.7,393.7 L396.7,388.1 L397.7,400.0 L398.7,399.0 L399.7,400.0 L400.7,385.7 L401.7,400.0 L402.8,388.7 L403.8,400.0 L404.8,383.1 L405.8,389.2 L406.8,373.8 L407.8,389.5 L408.8,400.0 L409.8,400.0 L410.8,400.0 L411.8,400.0 L412.8,378.2 L413.8,390.8 L414.9,400.0 L415.9,400.0 L416.9,399.5 L417.9,400.0 L418.9,400.0 L419.9,395.5 L420.9,383.4 L421.9,391.2 L422.9,400.0 L423.9,395.6 L424.9,399.0 L425.9,394.0 L427.0,376.7 L428.0,400.0 L429.0,400.0 L430.0,391.5 L431.0,400.0 L432.0,378.7 L432.0,400.0 Z" fill="url(#specFill)" stroke="none"/>

  <!-- Spectrum stroke (noisy polyline) -->
  <path d="M80.0,395.6 L81.0,400.0 L82.0,389.2 L83.0,386.5 L84.0,400.0 L85.0,400.0 L86.1,398.2 L87.1,400.0 L88.1,400.0 L89.1,400.0 L90.1,387.3 L91.1,388.8 L92.1,399.0 L93.1,383.8 L94.1,393.3 L95.1,400.0 L96.1,394.7 L97.1,400.0 L98.2,387.4 L99.2,400.0 L100.2,400.0 L101.2,400.0 L102.2,382.4 L103.2,400.0 L104.2,400.0 L105.2,400.0 L106.2,392.3 L107.2,394.7 L108.2,394.1 L109.2,393.8 L110.3,369.2 L111.3,400.0 L112.3,400.0 L113.3,400.0 L114.3,391.1 L115.3,383.7 L116.3,400.0 L117.3,400.0 L118.3,400.0 L119.3,390.6 L120.3,389.3 L121.4,392.2 L122.4,400.0 L123.4,396.7 L124.4,398.3 L125.4,396.9 L126.4,387.5 L127.4,396.8 L128.4,390.2 L129.4,399.0 L130.4,395.8 L131.4,390.9 L132.4,400.0 L133.5,400.0 L134.5,400.0 L135.5,400.0 L136.5,400.0 L137.5,378.5 L138.5,400.0 L139.5,386.1 L140.5,400.0 L141.5,400.0 L142.5,397.7 L143.5,391.6 L144.6,389.8 L145.6,388.6 L146.6,400.0 L147.6,400.0 L148.6,387.6 L149.6,400.0 L150.6,400.0 L151.6,400.0 L152.6,400.0 L153.6,392.8 L154.6,397.9 L155.6,390.0 L156.7,400.0 L157.7,397.6 L158.7,390.8 L159.7,400.0 L160.7,393.0 L161.7,400.0 L162.7,400.0 L163.7,400.0 L164.7,400.0 L165.7,391.5 L166.7,400.0 L167.7,397.3 L168.8,389.8 L169.8,389.5 L170.8,385.2 L171.8,394.9 L172.8,398.1 L173.8,391.2 L174.8,400.0 L175.8,400.0 L176.8,400.0 L177.8,392.8 L178.8,368.5 L179.9,382.6 L180.9,369.6 L181.9,339.3 L182.9,356.3 L183.9,333.1 L184.9,348.9 L185.9,329.4 L186.9,330.5 L187.9,311.4 L188.9,283.6 L189.9,309.2 L190.9,266.4 L192.0,257.3 L193.0,257.2 L194.0,257.4 L195.0,223.8 L196.0,221.1 L197.0,199.3 L198.0,192.3 L199.0,160.5 L200.0,179.0 L201.0,183.6 L202.0,161.0 L203.0,156.5 L204.1,137.9 L205.1,144.8 L206.1,152.7 L207.1,139.3 L208.1,181.6 L209.1,179.4 L210.1,190.5 L211.1,191.0 L212.1,214.5 L213.1,195.7 L214.1,219.0 L215.2,248.5 L216.2,253.7 L217.2,246.6 L218.2,251.2 L219.2,246.4 L220.2,244.8 L221.2,292.1 L222.2,323.0 L223.2,349.6 L224.2,324.6 L225.2,348.9 L226.2,351.3 L227.3,361.5 L228.3,361.4 L229.3,349.9 L230.3,368.3 L231.3,377.5 L232.3,394.2 L233.3,400.0 L234.3,392.8 L235.3,389.1 L236.3,365.0 L237.3,390.4 L238.3,379.7 L239.4,400.0 L240.4,400.0 L241.4,400.0 L242.4,400.0 L243.4,367.5 L244.4,400.0 L245.4,386.8 L246.4,400.0 L247.4,385.9 L248.4,393.8 L249.4,400.0 L250.5,400.0 L251.5,400.0 L252.5,392.8 L253.5,400.0 L254.5,400.0 L255.5,400.0 L256.5,394.9 L257.5,373.7 L258.5,392.9 L259.5,395.4 L260.5,387.6 L261.5,370.5 L262.6,383.3 L263.6,388.9 L264.6,362.9 L265.6,367.9 L266.6,346.6 L267.6,360.0 L268.6,373.7 L269.6,368.6 L270.6,317.6 L271.6,308.8 L272.6,328.5 L273.7,323.8 L274.7,290.1 L275.7,320.5 L276.7,311.7 L277.7,284.9 L278.7,296.4 L279.7,288.7 L280.7,290.4 L281.7,284.0 L282.7,270.8 L283.7,293.4 L284.7,290.3 L285.8,334.9 L286.8,312.8 L287.8,331.5 L288.8,344.5 L289.8,347.4 L290.8,347.3 L291.8,336.7 L292.8,376.1 L293.8,363.1 L294.8,376.4 L295.8,379.5 L296.8,365.0 L297.9,375.7 L298.9,367.5 L299.9,391.8 L300.9,400.0 L301.9,396.9 L302.9,391.5 L303.9,393.5 L304.9,400.0 L305.9,395.8 L306.9,394.0 L307.9,360.9 L309.0,369.8 L310.0,400.0 L311.0,399.5 L312.0,400.0 L313.0,400.0 L314.0,386.2 L315.0,370.9 L316.0,395.9 L317.0,391.2 L318.0,400.0 L319.0,374.9 L320.0,381.9 L321.1,367.4 L322.1,364.6 L323.1,344.4 L324.1,358.3 L325.1,342.9 L326.1,278.8 L327.1,314.6 L328.1,297.4 L329.1,239.8 L330.1,208.2 L331.1,250.1 L332.1,221.3 L333.2,193.7 L334.2,156.5 L335.2,178.8 L336.2,152.0 L337.2,122.2 L338.2,113.5 L339.2,113.1 L340.2,99.5 L341.2,109.4 L342.2,87.3 L343.2,84.6 L344.3,76.7 L345.3,90.0 L346.3,79.6 L347.3,78.7 L348.3,100.1 L349.3,108.4 L350.3,125.6 L351.3,140.8 L352.3,166.8 L353.3,168.4 L354.3,191.4 L355.3,177.2 L356.4,202.0 L357.4,236.1 L358.4,269.2 L359.4,290.1 L360.4,271.8 L361.4,299.1 L362.4,308.9 L363.4,352.7 L364.4,324.8 L365.4,341.1 L366.4,372.0 L367.4,370.1 L368.5,365.9 L369.5,374.4 L370.5,384.0 L371.5,385.2 L372.5,390.6 L373.5,387.4 L374.5,370.6 L375.5,400.0 L376.5,398.5 L377.5,393.7 L378.5,392.8 L379.6,400.0 L380.6,400.0 L381.6,394.0 L382.6,374.2 L383.6,400.0 L384.6,387.1 L385.6,400.0 L386.6,400.0 L387.6,400.0 L388.6,400.0 L389.6,381.2 L390.6,391.5 L391.7,375.0 L392.7,383.0 L393.7,393.7 L394.7,374.9 L395.7,393.7 L396.7,388.1 L397.7,400.0 L398.7,399.0 L399.7,400.0 L400.7,385.7 L401.7,400.0 L402.8,388.7 L403.8,400.0 L404.8,383.1 L405.8,389.2 L406.8,373.8 L407.8,389.5 L408.8,400.0 L409.8,400.0 L410.8,400.0 L411.8,400.0 L412.8,378.2 L413.8,390.8 L414.9,400.0 L415.9,400.0 L416.9,399.5 L417.9,400.0 L418.9,400.0 L419.9,395.5 L420.9,383.4 L421.9,391.2 L422.9,400.0 L423.9,395.6 L424.9,399.0 L425.9,394.0 L427.0,376.7 L428.0,400.0 L429.0,400.0 L430.0,391.5 L431.0,400.0 L432.0,378.7" fill="none" stroke="#A29BFE" stroke-width="2.5"
        stroke-linecap="round" stroke-linejoin="round"/>

  <!-- Persistence bars (peak to water level) -->
  <line x1="344.3" y1="76.7" x2="344.3" y2="265.6"
        stroke="#FF6F61" stroke-width="1.5" stroke-dasharray="4,3" opacity="0.7"/>
  <line x1="204.1" y1="137.9" x2="204.1" y2="265.6"
        stroke="#FF6F61" stroke-width="1.5" stroke-dasharray="4,3" opacity="0.7"/>

  <!-- Peak markers -->
  <circle cx="344.3" cy="76.7" r="5" fill="#FF6F61" opacity="0.9"/>
  <circle cx="204.1" cy="137.9" r="5" fill="#FF6F61" opacity="0.9"/>
</svg>
